<svg width="536" height="926" viewBox="0 0 536 926" fill="none" xmlns="http://www.w3.org/2000/svg" role="img" aria-label="vibechess">
<path d="M154.625 1.18804C151.825 2.52137 148.758 7.45471 148.758 10.6547C148.758 11.588 155.692 35.3214 164.092 63.3214C172.492 91.4547 179.425 115.455 179.425 116.788C179.425 118.121 175.692 123.588 171.025 129.055C160.758 141.055 123.825 185.988 82.8917 236.255C45.1583 282.521 47.025 280.255 22.3583 310.121C11.1583 323.721 1.29167 336.388 0.625 338.121C-0.0416667 339.855 -0.175 342.521 0.225 344.121C0.758333 345.588 8.09167 359.455 16.7583 374.921C25.2917 390.255 37.5583 412.655 43.9583 424.655C55.1583 445.321 57.9583 448.921 62.7583 448.921C63.825 448.921 103.158 433.588 149.958 414.921C196.758 396.255 235.825 380.921 236.625 380.921C239.025 380.921 238.358 399.321 235.558 410.521C229.958 432.121 218.092 451.988 191.425 483.588C152.625 529.588 133.292 555.455 116.358 583.588C89.2917 628.921 71.6917 681.588 67.5583 729.588C65.6917 749.988 65.6917 793.721 67.425 796.921C69.5583 800.788 76.225 802.521 81.425 800.388C87.5583 797.721 88.4917 793.588 88.7583 765.588C88.8917 737.988 90.225 724.121 94.7583 701.588C107.692 637.721 134.358 587.721 192.625 518.388C230.758 473.055 239.825 460.655 248.892 441.721C260.492 417.721 263.692 389.455 258.092 362.388C256.758 355.588 255.292 349.588 254.892 349.188C254.492 348.788 212.625 365.055 161.825 385.321C90.225 413.988 69.1583 421.855 67.9583 420.521C65.825 418.121 26.0917 345.055 26.0917 343.455C26.0917 342.121 31.025 335.855 72.225 285.721C82.4917 273.188 100.492 251.188 112.092 236.921C132.492 211.855 153.558 186.388 188.358 144.521C197.425 133.588 204.758 123.588 204.758 122.255C204.758 120.921 202.092 110.788 198.758 99.7214C195.425 88.6547 190.092 70.5214 186.758 59.4547C178.758 32.9214 178.758 33.4547 188.492 37.7214C209.958 47.188 233.025 63.588 252.092 82.9214L265.558 96.5214L275.692 98.1214C301.425 102.255 334.892 113.588 358.092 125.855C462.625 181.455 519.692 289.855 511.692 417.321C509.958 445.588 508.092 459.055 498.092 516.255C479.425 624.121 476.492 676.788 486.225 734.121C491.025 762.921 500.092 794.788 504.625 798.788C508.625 802.388 517.825 801.188 521.292 796.521C524.358 792.388 524.358 792.788 516.092 764.921C507.025 734.788 502.625 693.721 503.958 652.921C505.158 617.321 509.425 583.721 522.092 512.255C532.892 451.855 536.225 417.188 535.025 380.255C533.025 321.721 517.825 267.988 490.092 220.788C446.092 146.255 375.292 95.588 289.558 77.0547L276.225 74.1214L262.225 60.5214C240.625 39.7214 217.958 25.3214 180.625 8.38804C160.492 -0.81196 159.292 -1.07863 154.625 1.18804Z" fill="#1A1A1A" stroke="#1A1A1A" stroke-width="11" stroke-linejoin="round" stroke-linecap="round"/>
<path d="M271.425 551.055C265.425 553.721 262.358 556.521 259.292 562.521C253.292 574.255 258.358 588.788 270.492 595.055L274.092 597.055V737.455V877.988L270.092 879.588C261.558 883.055 255.958 893.988 257.158 904.388C259.292 923.588 282.892 931.855 297.292 918.521C309.292 907.321 305.958 885.588 291.292 879.588L287.425 877.988V790.788C287.425 742.121 287.958 703.588 288.625 703.588C289.292 703.588 294.492 706.655 300.225 710.388C306.092 714.255 315.292 720.121 320.758 723.588C326.225 726.921 338.358 734.655 347.692 740.655L364.625 751.455L367.825 745.855L371.158 740.255L366.225 736.921C363.558 735.188 344.892 723.055 324.758 710.121L288.092 686.655L287.825 641.455L287.425 596.255L292.492 593.988C304.892 588.121 308.892 568.921 299.825 558.121C292.892 549.855 281.025 546.921 271.425 551.055Z" fill="#1A1A1A" stroke="#1A1A1A" stroke-width="11" stroke-linejoin="round" stroke-linecap="round"/>
<circle cx="367" cy="744" r="26" fill="#FF6600"/>
</svg>
